<svg xmlns="http://www.w3.org/2000/svg" viewBox="0 0 50 50">
  <path fill="#FFDB1B" d="M25 0a25 25 0 1 0 25 24.984C49.991 11.184 38.801 0 25 0"/>
  <path fill="#001120"
        d="M38.594 17.5h-.469v-2.813C38.125 12.063 32.312 10 25 10c-7.313 0-13.125 2.063-13.125 4.688V17.5h-.469c-.776 0-1.406.63-1.406 1.406v4.688c0 .776.63 1.406 1.406 1.406h.469v9.375c0 1.035.84 1.875 1.875 1.875v1.875c0 1.035.84 1.875 1.875 1.875H17.5c1.035 0 1.875-.84 1.875-1.875V36.25h11.25v1.875c0 1.035.84 1.875 1.875 1.875h1.875c1.035 0 1.875-.84 1.875-1.875V36.25h.375c.938 0 1.5-.75 1.5-1.5V25h.469C39.37 25 40 24.37 40 23.594v-4.688c0-.777-.63-1.406-1.406-1.406zM16.562 33.438a1.875 1.875 0 1 1 .001-3.751 1.875 1.875 0 0 1 0 3.75zm.938-6.563A1.875 1.875 0 0 1 15.625 25v-7.5c0-1.035.84-1.875 1.875-1.875h15c1.035 0 1.875.84 1.875 1.875V25c0 1.035-.84 1.875-1.875 1.875h-15zm15.938 6.563a1.875 1.875 0 1 1 0-3.751 1.875 1.875 0 0 1 0 3.75z"/>
</svg>
