<svg xmlns="http://www.w3.org/2000/svg" viewBox="0 0 25 36">
  <g fill="none" fill-rule="evenodd" transform="matrix(0 1 1 0 0 0)">
    <path fill="#808285" d="M0 11v7a3 3 0 0 0 3 3h30a3 3 0 0 0 3-3v-7H0z"/>
    <path fill="#CCD6DD" d="M36 12V3c0-1.657-3.343-3-5-3H11C3 0 0 2.343 0 4v8h36z"/>
    <path fill="#939598" d="M0 12h36v3H0z"/>
    <path fill="#BCBEC0" fill-rule="nonzero" d="M7 15a5.998 5.998 0 0 0-5.95 5.263A2.978 2.978 0 0 0 3 21h10a6 6 0 0 0-6-6zm27.95 5.263A5.998 5.998 0 0 0 23 21h10c.749 0 1.425-.284 1.95-.737z"/>
    <circle cx="7" cy="21" r="4" fill="#000"/>
    <circle cx="7" cy="21" r="2" fill="#99AAB5"/>
    <circle cx="29" cy="21" r="4" fill="#000"/>
    <circle cx="29" cy="21" r="2" fill="#99AAB5"/>
    <path fill="#F4900C" fill-rule="nonzero" d="M0 15h1v2H0v-2zm35-2h1v2h-1v-2z"/>
    <path fill="#58595B" d="M1 3h35v10H1z"/>
    <path fill="#292F33" d="M2 3H.342C.11 3.344 0 3.685 0 4v11h2a2 2 0 0 0 2-2V5a2 2 0 0 0-2-2z"/>
    <path fill="#55ACEE" d="M31 10a1 1 0 0 1-1 1H7a1 1 0 0 1-1-1V6a1 1 0 0 1 1-1h23a1 1 0 0 1 1 1v4z"/>
    <path fill="#FFAC33" d="M35 9h1v2h-1z"/>
    <path fill="#55ACEE" d="M1 5H0v8h1a1 1 0 0 0 1-1V6a1 1 0 0 0-1-1z"/>
  </g>
</svg>
